<svg id="Layer_1" data-name="Layer 1" xmlns="http://www.w3.org/2000/svg" xmlns:xlink="http://www.w3.org/1999/xlink" viewBox="0 0 800 800"><defs><style>.cls-1{fill:none;}.cls-2{clip-path:url(#clip-path);}.cls-3{fill:#f89d28;}.cls-4{fill:#ffcf13;}.cls-5{clip-path:url(#clip-path-2);}.cls-6{fill:#9a1820;}.cls-7{fill:#e62528;}</style><clipPath id="clip-path"><path class="cls-1" d="M624.11,596v27.28H680.6v27.63l-27.15,1.36c-.42,9.05-.83,17.78-1.3,27.92H568.81c-.47,9.66-.88,17.93-1.36,27.69l-27.37,1.47v27.35H454.8v28.73H482v17.39C242.93,840.37,6.92,652.86,3.62,413H794.44c-2.54,22.45-5.1,45.19-7.81,69.2H653.43V510h55.64v29.09h-112c-.49,9.36-.9,17.05-1.4,26.55H541.24V596Z"/></clipPath><clipPath id="clip-path-2"><path class="cls-1" d="M568.07,89.18H540.59v28.31h55.1v28.43L569,147.47v27.8h55v27.82h27.88v27.06H569.3v29H680.59v28.25H625.06v28.16H786.13c3,23.76,5.86,46,8.87,69.74H2.53c1.08-51.76,13.1-100.72,34.34-147.37C106.58,84.81,262.61-4.15,431.26,7.14c54.73,3.67,81.12,14.22,120,28.9a180.86,180.86,0,0,1,16.84,8.05ZM142.57,202.71A113.48,113.48,0,0,0,255.51,316.45c63.15.26,115.31-51.49,114.92-114-.38-60.94-51.72-112.54-112.54-113.12C194.5,88.7,142.75,139.59,142.57,202.71Z"/></clipPath></defs><title>retro_death_vector</title><g class="cls-2"><rect class="cls-3" x="2.69" y="399.02" width="791.75" height="197.94"/><rect class="cls-4" x="2.69" y="597.25" width="791.75" height="197.94"/></g><g class="cls-5"><rect class="cls-6" x="2.69" y="2.57" width="791.75" height="197.94"/><rect class="cls-7" x="2.69" y="200.8" width="791.75" height="197.94"/></g></svg>